<?xml version="1.0" encoding="utf-8"?>
<!-- Generator: Adobe Illustrator 27.5.0, SVG Export Plug-In . SVG Version: 6.00 Build 0)  -->
<svg version="1.1" xmlns="http://www.w3.org/2000/svg" xmlns:xlink="http://www.w3.org/1999/xlink" x="0px" y="0px"
	 viewBox="0 0 500 500" style="enable-background:new 0 0 500 500;" xml:space="preserve">
<g id="BACKGROUND">
	<circle style="fill:#cdcdcd;" cx="250" cy="250" r="250" />

</g>
<g id="OBJECTS">
	<g>
			<g>
				<g>
					<linearGradient id="SVGID_1_" gradientUnits="userSpaceOnUse" x1="362.0352" y1="99.8053" x2="96.0171" y2="353.2629">
						<stop  offset="0" style="stop-color:#3887FE"/>
						<stop  offset="0.5223" style="stop-color:#8338EA"/>
						<stop  offset="1" style="stop-color:#FF006C"/>
					</linearGradient>
					<path style="fill:url(#SVGID_1_);" d="M242.42,321.37c-3.063,0-6.155-0.135-9.188-0.399
						c-13.942-1.232-27.845-5.276-40.209-11.692c-12.319-6.367-23.607-15.326-32.638-25.906
						c-9.031-10.58-16.079-23.078-20.383-36.144c-4.301-12.956-6.094-27.131-5.183-40.984c0.88-13.635,4.552-27.385,10.616-39.758
						c6.001-12.246,14.568-23.523,24.775-32.615c10.17-9.092,22.297-16.291,35.065-20.813c11.227-3.997,23.048-6.024,35.13-6.024
						c1.67,0,3.361,0.041,5.025,0.12c13.521,0.609,27.097,3.915,39.251,9.559c12.182,5.632,23.45,13.795,32.581,23.603
						c1.492,1.603,1.418,4.107-0.166,5.62c-0.774,0.738-1.769,1.106-2.761,1.106c-1.039,0-2.077-0.402-2.86-1.203
						c-8.638-8.83-19.169-16.082-30.455-20.971c-11.188-4.87-23.61-7.579-35.931-7.838c-0.761-0.018-1.51-0.027-2.26-0.027
						c-11.672,0-23.048,2.091-33.813,6.215c-11.312,4.317-21.985,11.006-30.872,19.346c-8.855,8.276-16.189,18.436-21.215,29.383
						c-5.057,10.963-7.981,23.077-8.461,35.038c-0.515,12.057,1.334,24.325,5.346,35.487c3.977,11.166,10.293,21.764,18.269,30.659
						c0.472,0.518,0.977,1.074,1.467,1.595c2.34,2.493,4.963,4.969,7.798,7.36c5.916,4.991,12.335,9.178,19.076,12.441
						c4.136,2.024,8.481,3.747,12.931,5.128c6.041,1.875,12.282,3.12,18.55,3.7c0.88,0.082,1.762,0.154,2.645,0.21
						c1.904,0.13,3.819,0.194,5.714,0.194c21.312,0,42.899-8.226,59.227-22.566c13.738-12.067,23.773-27.929,28.255-44.665
						c0.623-2.328,1.109-4.494,1.484-6.622c0.143-0.806,0.267-1.61,0.374-2.415c0-0.001,0.041-0.356,0.041-0.356
						c0.68-5.318,0.698-10.668,0.717-16.333c0.024-7.42,0.05-15.092,1.7-22.72c1.183-5.413,3.196-10.436,5.985-14.939
						c3.684-5.951,8.496-10.641,14.302-13.938c0.143-0.083,0.311-0.17,0.48-0.257l0.153-0.079c0.675-0.376,1.354-0.745,2.043-1.083
						c0.277-0.136,0.556-0.261,0.835-0.385l0.501-0.226c0.486-0.222,0.971-0.442,1.463-0.644c0.341-0.14,0.683-0.268,1.024-0.395
						l0.272-0.102c0.515-0.194,1.032-0.387,1.554-0.563c0.452-0.152,0.904-0.29,1.356-0.427c0.51-0.155,1.02-0.305,1.533-0.443
						c0.459-0.124,0.924-0.239,1.39-0.351c0.508-0.121,1.013-0.232,1.521-0.336c0.472-0.097,0.947-0.19,1.424-0.274
						c0.501-0.088,1.002-0.165,1.504-0.237c0.511-0.074,0.973-0.141,1.435-0.195c0.32-0.037,0.638-0.068,0.956-0.098v-4.529
						c0-1.511,0.852-2.894,2.202-3.573c0.568-0.286,1.184-0.427,1.797-0.427c0.843,0,1.682,0.267,2.384,0.788l21.834,16.204
						c1.017,0.754,1.616,1.946,1.616,3.212s-0.6,2.458-1.616,3.212l-21.834,16.203c-0.703,0.521-1.541,0.788-2.384,0.788
						c-0.613,0-1.229-0.141-1.797-0.427c-1.35-0.68-2.202-2.062-2.202-3.573v-4.738c-0.116,0.015-0.231,0.029-0.347,0.047
						c-0.204,0.032-0.404,0.071-0.604,0.109l-0.378,0.072c-0.201,0.038-0.401,0.075-0.601,0.118
						c-0.244,0.053-0.487,0.114-0.73,0.174c-0.301,0.075-0.56,0.142-0.816,0.214c-0.242,0.068-0.48,0.14-0.715,0.213
						c-0.268,0.084-0.534,0.174-0.798,0.267c-0.248,0.087-0.453,0.159-0.654,0.236c-0.278,0.107-0.553,0.225-0.829,0.343
						c0,0-0.462,0.195-0.575,0.247c-0.299,0.139-0.595,0.293-0.891,0.447l-0.409,0.206c-10.238,5.59-11.313,17.667-11.607,31.708
						c-0.011,0.493-0.028,0.981-0.046,1.469l-0.052,1.559c-0.018,0.424-0.04,0.849-0.063,1.274c0,0-0.076,1.483-0.1,1.868
						c-0.027,0.439-0.059,0.878-0.091,1.318c0,0-0.1,1.368-0.137,1.818c-0.046,0.556-0.099,1.11-0.151,1.665
						c-0.046,0.487-0.094,0.975-0.146,1.461c-0.06,0.564-0.124,1.134-0.191,1.704c-0.056,0.468-0.114,0.932-0.174,1.397
						c-0.075,0.584-0.154,1.173-0.238,1.762c-0.063,0.438-0.13,0.872-0.197,1.306c-0.094,0.612-0.19,1.229-0.294,1.844l-0.234,1.309
						c-0.109,0.609-0.219,1.218-0.339,1.825l-0.243,1.178c-0.116,0.573-0.232,1.145-0.36,1.715
						c-0.224,0.999-0.465,1.992-0.717,2.983l-0.084,0.319c-0.207,0.806-0.423,1.61-0.649,2.412l-0.21,0.724
						c-0.192,0.664-0.391,1.327-0.597,1.988l-0.291,0.914c-0.192,0.595-0.389,1.186-0.592,1.774
						c-0.119,0.346-0.238,0.691-0.362,1.037c-0.192,0.538-0.391,1.073-0.592,1.607c0,0-0.316,0.841-0.432,1.137
						c-0.171,0.434-0.345,0.857-0.519,1.281l-0.198,0.484c-0.129,0.316-0.258,0.631-0.393,0.945
						c-0.089,0.209-0.408,0.916-0.408,0.916l-0.161,0.367c-0.183,0.418-0.367,0.837-0.56,1.251
						c-5.957,12.786-14.856,24.853-25.734,34.893c-1.265,1.168-2.407,2.184-3.49,3.107c-0.032,0.027-0.706,0.589-0.706,0.589
						c-1.171,0.983-2.397,1.961-3.787,3.023c-3.655,2.796-7.554,5.398-11.586,7.734c-1.553,0.901-2.99,1.696-4.391,2.429
						c-5.514,2.861-11.311,5.281-17.24,7.2C264.6,319.642,253.608,321.37,242.42,321.37z"/>
				</g>
				<g>
					
						<linearGradient id="SVGID_00000141423932315755281360000013136476950744055742_" gradientUnits="userSpaceOnUse" x1="394.7408" y1="75.6382" x2="125.1339" y2="320.1233">
						<stop  offset="0" style="stop-color:#3887FE"/>
						<stop  offset="0.5223" style="stop-color:#8338EA"/>
						<stop  offset="1" style="stop-color:#FF006C"/>
					</linearGradient>
					<path style="fill:url(#SVGID_00000141423932315755281360000013136476950744055742_);" d="M397.629,164.786l-21.834-16.204
						v8.283c-0.521,0.013-1.044,0.02-1.562,0.054c-0.068,0.004-0.137,0.013-0.205,0.017c-0.447,0.027-0.894,0.072-1.341,0.111
						c-0.46,0.041-0.92,0.08-1.38,0.134c-0.444,0.052-0.887,0.117-1.33,0.182c-0.463,0.067-0.925,0.137-1.387,0.218
						c-0.438,0.077-0.874,0.163-1.31,0.252c-0.467,0.096-0.932,0.199-1.397,0.309c-0.428,0.102-0.855,0.208-1.281,0.322
						c-0.471,0.126-0.939,0.265-1.406,0.407c-0.415,0.126-0.829,0.252-1.241,0.391c-0.478,0.161-0.952,0.339-1.426,0.517
						c-0.395,0.148-0.791,0.292-1.182,0.452c-0.499,0.205-0.991,0.432-1.484,0.657c-0.358,0.163-0.719,0.315-1.073,0.489
						c-0.628,0.308-1.245,0.645-1.86,0.987c-0.199,0.111-0.405,0.205-0.603,0.32c-5.406,3.069-9.706,7.442-12.877,12.566
						c-2.578,4.161-4.414,8.815-5.476,13.679c-2.759,12.756-0.717,25.882-2.36,38.73c-0.015,0.118-0.025,0.237-0.041,0.355
						c0,0.001,0,0.002-0.001,0.003c-0.115,0.863-0.248,1.724-0.4,2.584c-0.413,2.343-0.944,4.663-1.56,6.962
						c-4.821,18.001-15.637,34.478-29.479,46.635c-18.41,16.17-43.18,25.04-67.83,23.36c-0.923-0.058-1.844-0.134-2.765-0.219
						c-6.556-0.607-13.058-1.906-19.367-3.864c-4.618-1.434-9.133-3.217-13.488-5.348c-7.131-3.453-13.825-7.849-19.912-12.984
						c-2.85-2.405-5.578-4.958-8.134-7.68c-0.504-0.538-1.025-1.109-1.529-1.664c-8.317-9.275-14.854-20.18-19.055-31.976
						c-4.234-11.779-6.116-24.415-5.579-37c0.504-12.585,3.529-25.07,8.822-36.547c5.276-11.493,12.837-21.962,22.113-30.632
						c9.275-8.704,20.248-15.61,32.178-20.164c11.93-4.571,24.768-6.755,37.588-6.452c12.821,0.269,25.624,3.025,37.437,8.166
						c11.829,5.125,22.667,12.585,31.724,21.844c-8.822-9.477-19.525-17.24-31.338-22.701c-11.796-5.478-24.7-8.603-37.756-9.191
						c-13.039-0.622-26.263,1.277-38.63,5.679c-12.384,4.385-23.911,11.241-33.74,20.029c-9.847,8.771-18.013,19.492-23.843,31.388
						c-5.831,11.896-9.359,24.986-10.216,38.26c-0.874,13.274,0.773,26.767,4.991,39.47c4.184,12.703,10.905,24.583,19.626,34.799
						c8.721,10.216,19.441,18.752,31.438,24.952c11.98,6.217,25.221,10.065,38.714,11.258c13.476,1.176,27.339-0.353,40.277-4.553
						c5.713-1.848,11.275-4.167,16.618-6.94c1.431-0.747,2.842-1.534,4.24-2.344c3.872-2.243,7.604-4.731,11.162-7.452
						c1.22-0.933,2.426-1.886,3.603-2.873c0.096-0.083,0.198-0.165,0.296-0.247c0.142-0.119,0.28-0.238,0.428-0.357
						c1.144-0.975,2.264-1.981,3.372-3.003c10.277-9.485,18.922-20.979,24.822-33.645c0.239-0.513,0.462-1.032,0.69-1.549
						c0.128-0.29,0.262-0.578,0.387-0.869c0.175-0.408,0.34-0.82,0.509-1.231c0.186-0.452,0.373-0.904,0.551-1.359
						c0.142-0.363,0.278-0.728,0.415-1.092c0.193-0.513,0.384-1.026,0.568-1.541c0.118-0.331,0.233-0.662,0.346-0.994
						c0.194-0.565,0.383-1.131,0.567-1.699c0.095-0.293,0.188-0.585,0.28-0.879c0.198-0.635,0.389-1.271,0.574-1.91
						c0.067-0.232,0.136-0.465,0.202-0.698c0.217-0.771,0.425-1.544,0.624-2.319c0.026-0.103,0.055-0.205,0.081-0.308
						c0.242-0.955,0.475-1.912,0.691-2.873c0.152-0.678,0.287-1.361,0.426-2.042c0.051-0.251,0.107-0.501,0.157-0.752
						c0.125-0.637,0.239-1.275,0.354-1.914c0.066-0.37,0.136-0.74,0.199-1.111c0.101-0.596,0.193-1.192,0.285-1.79
						c0.065-0.42,0.13-0.839,0.19-1.26c0.082-0.57,0.158-1.141,0.232-1.712c0.058-0.45,0.115-0.901,0.168-1.351
						c0.065-0.552,0.128-1.104,0.186-1.656c0.05-0.472,0.096-0.944,0.141-1.417c0.051-0.539,0.102-1.078,0.147-1.617
						c0.04-0.483,0.075-0.965,0.11-1.448c0.039-0.534,0.079-1.068,0.112-1.602c0.029-0.475,0.052-0.95,0.076-1.425
						c0.028-0.545,0.059-1.09,0.082-1.635c0.014-0.345,0.022-0.689,0.033-1.033c0.022-0.638,0.048-1.277,0.062-1.914
						c0.27-12.9,0.97-28.19,13.68-35.13c0.16-0.088,0.328-0.165,0.491-0.249c0.35-0.182,0.699-0.363,1.059-0.529
						c0.222-0.103,0.451-0.195,0.676-0.292c0.321-0.138,0.643-0.275,0.971-0.401c0.25-0.096,0.504-0.185,0.758-0.274
						c0.308-0.108,0.617-0.213,0.93-0.311c0.274-0.086,0.549-0.168,0.827-0.247c0.296-0.083,0.595-0.16,0.894-0.235
						c0.295-0.073,0.59-0.147,0.888-0.212c0.283-0.062,0.569-0.114,0.855-0.168c0.316-0.06,0.631-0.123,0.95-0.174
						c0.252-0.04,0.507-0.067,0.76-0.101c0.634-0.085,1.271-0.151,1.912-0.199c0.292-0.022,0.583-0.049,0.875-0.064
						c0.137-0.008,0.275-0.011,0.412-0.017c0.337-0.012,0.675-0.011,1.013-0.014v9.037L397.629,164.786z"/>
				</g>
				<g>
					
						<linearGradient id="SVGID_00000159465330836364470820000008075637745504940686_" gradientUnits="userSpaceOnUse" x1="319.2318" y1="134.252" x2="155.3811" y2="251.3362">
						<stop  offset="0" style="stop-color:#3887FE"/>
						<stop  offset="0.5223" style="stop-color:#8338EA"/>
						<stop  offset="1" style="stop-color:#FF006C"/>
					</linearGradient>
					<path style="fill:url(#SVGID_00000159465330836364470820000008075637745504940686_);" d="M205.74,193.913v62.165
						c0,7.515-6.092,13.607-13.607,13.607l0,0c-7.515,0-13.607-6.092-13.607-13.607v-61.737c0-7.494,6.125-14.042,13.619-14.036
						c3.762,0.003,7.155,1.516,9.608,3.988C204.208,186.75,205.74,190.165,205.74,193.913z"/>
				</g>
				<g>
					
						<linearGradient id="SVGID_00000066485072104469974490000013111257947812754367_" gradientUnits="userSpaceOnUse" x1="356.6972" y1="153.5848" x2="192.8464" y2="270.6692">
						<stop  offset="0" style="stop-color:#3887FE"/>
						<stop  offset="0.5223" style="stop-color:#8338EA"/>
						<stop  offset="1" style="stop-color:#FF006C"/>
					</linearGradient>
					<path style="fill:url(#SVGID_00000066485072104469974490000013111257947812754367_);" d="M299.053,152.847v103.232
						c0,7.515-6.092,13.607-13.607,13.607l0,0c-7.515,0-13.607-6.092-13.607-13.607V153.255c0-7.254,5.505-13.541,12.744-13.988
						c4.109-0.254,7.84,1.32,10.482,3.961C297.52,145.683,299.053,149.08,299.053,152.847z"/>
				</g>
				<g>
					
						<linearGradient id="SVGID_00000177464474628912460480000007582436249064439983_" gradientUnits="userSpaceOnUse" x1="345.3871" y1="137.7576" x2="181.5365" y2="254.8418">
						<stop  offset="0" style="stop-color:#3887FE"/>
						<stop  offset="0.5223" style="stop-color:#8338EA"/>
						<stop  offset="1" style="stop-color:#FF006C"/>
					</linearGradient>
					<path style="fill:url(#SVGID_00000177464474628912460480000007582436249064439983_);" d="M252.396,171.799v84.28
						c0,7.515-6.092,13.607-13.607,13.607l0,0c-7.515,0-13.607-6.092-13.607-13.607v-84.28c0-7.533,6.093-13.626,13.607-13.626
						c3.748,0,7.164,1.514,9.619,3.988C250.882,164.635,252.396,168.033,252.396,171.799z"/>
				</g>
				<g>
					
						<linearGradient id="SVGID_00000047046964475989692890000000921579365128607885_" gradientUnits="userSpaceOnUse" x1="317.6968" y1="123.5711" x2="265.6595" y2="238.6362">
						<stop  offset="0" style="stop-color:#3887FE"/>
						<stop  offset="0.5223" style="stop-color:#8338EA"/>
						<stop  offset="1" style="stop-color:#FF006C"/>
					</linearGradient>
					<path style="fill:url(#SVGID_00000047046964475989692890000000921579365128607885_);" d="M284.583,139.266
						c-7.24,0.447-12.744,6.735-12.744,13.988v102.824c0,7.515,6.092,13.607,13.607,13.607V139.26
						C285.158,139.26,284.874,139.248,284.583,139.266z"/>
				</g>
				<g>
					
						<linearGradient id="SVGID_00000021084466909979942670000014484451388870293400_" gradientUnits="userSpaceOnUse" x1="282.4679" y1="107.6391" x2="230.4306" y2="222.7041">
						<stop  offset="0" style="stop-color:#3887FE"/>
						<stop  offset="0.5223" style="stop-color:#8338EA"/>
						<stop  offset="1" style="stop-color:#FF006C"/>
					</linearGradient>
					<path style="fill:url(#SVGID_00000021084466909979942670000014484451388870293400_);" d="M225.182,171.799v84.28
						c0,7.515,6.092,13.607,13.607,13.607V158.173C231.275,158.173,225.182,164.266,225.182,171.799z"/>
				</g>
				<g>
					
						<linearGradient id="SVGID_00000010992640659668941000000009165013414880317087_" gradientUnits="userSpaceOnUse" x1="247.9617" y1="92.0339" x2="195.9243" y2="207.0992">
						<stop  offset="0" style="stop-color:#3887FE"/>
						<stop  offset="0.5223" style="stop-color:#8338EA"/>
						<stop  offset="1" style="stop-color:#FF006C"/>
					</linearGradient>
					<path style="fill:url(#SVGID_00000010992640659668941000000009165013414880317087_);" d="M192.144,180.306
						c-7.494-0.006-13.619,6.542-13.619,14.036v61.737c0,7.515,6.092,13.607,13.607,13.607c0.004,0,0.008-0.001,0.011-0.001V180.306
						z"/>
				</g>
			</g>
			<g>
				
					<linearGradient id="SVGID_00000087373917090589252340000006205219420448454065_" gradientUnits="userSpaceOnUse" x1="279.2209" y1="141.8262" x2="294.3669" y2="168.0598">
					<stop  offset="0" style="stop-color:#3887FE"/>
					<stop  offset="0.5223" style="stop-color:#8338EA"/>
					<stop  offset="1" style="stop-color:#FF006C"/>
				</linearGradient>
				<circle style="fill:url(#SVGID_00000087373917090589252340000006205219420448454065_);" cx="285.445" cy="152.607" r="11.888"/>
			</g>
			<g>
				
					<linearGradient id="SVGID_00000100368727064480426320000016745497174600651160_" gradientUnits="userSpaceOnUse" x1="232.5646" y1="160.8355" x2="247.7106" y2="187.0692">
					<stop  offset="0" style="stop-color:#3887FE"/>
					<stop  offset="0.5223" style="stop-color:#8338EA"/>
					<stop  offset="1" style="stop-color:#FF006C"/>
				</linearGradient>
				<circle style="fill:url(#SVGID_00000100368727064480426320000016745497174600651160_);" cx="238.789" cy="171.617" r="11.888"/>
			</g>
			<g>
				
					<linearGradient id="SVGID_00000052092830388518994700000003089384851086156162_" gradientUnits="userSpaceOnUse" x1="185.9198" y1="183.2094" x2="201.0658" y2="209.443">
					<stop  offset="0" style="stop-color:#3887FE"/>
					<stop  offset="0.5223" style="stop-color:#8338EA"/>
					<stop  offset="1" style="stop-color:#FF006C"/>
				</linearGradient>
				<circle style="fill:url(#SVGID_00000052092830388518994700000003089384851086156162_);" cx="192.144" cy="193.991" r="11.888"/>
			</g>
	</g>
</g>
</svg>
